<svg xmlns="http://www.w3.org/2000/svg" viewBox="0 0 1200 480" width="1200" height="480" role="img" aria-label="The Genius Project banner">
  <defs>
    <linearGradient id="sky" x1="0" y1="0" x2="0" y2="1">
      <stop offset="0%" stop-color="#070a16"/>
      <stop offset="50%" stop-color="#10122c"/>
      <stop offset="78%" stop-color="#2e181e"/>
      <stop offset="100%" stop-color="#3a2216"/>
    </linearGradient>
    <radialGradient id="glow" cx="50%" cy="72%" r="55%">
      <stop offset="0%" stop-color="#ff7837" stop-opacity="0.35"/>
      <stop offset="60%" stop-color="#ff6a2b" stop-opacity="0.08"/>
      <stop offset="100%" stop-color="#000000" stop-opacity="0"/>
    </radialGradient>
    <linearGradient id="title" x1="0" y1="0" x2="1" y2="0">
      <stop offset="0%" stop-color="#ffe8cf"/>
      <stop offset="50%" stop-color="#fffaf2"/>
      <stop offset="100%" stop-color="#dff2ff"/>
    </linearGradient>
  </defs>
  <rect width="1200" height="480" fill="url(#sky)"/>
  <ellipse cx="600" cy="345" rx="504" ry="144" fill="url(#glow)"/>
  <polygon points="229.0,333.0 263.0,350.0 263.0,380.0 229.0,363.0" fill="#005529"/>
<polygon points="297.0,333.0 263.0,350.0 263.0,380.0 297.0,363.0" fill="#00783b"/>
<polygon points="263.0,316.0 297.0,333.0 263.0,350.0 229.0,333.0" fill="#00ad55"/>
<line x1="263.0" y1="316.0" x2="297.0" y2="333.0" stroke="#00d166" stroke-width="1"/>
<line x1="263.0" y1="316.0" x2="229.0" y2="333.0" stroke="#00d166" stroke-width="1"/>
<polygon points="229.0,303.0 263.0,320.0 263.0,350.0 229.0,333.0" fill="#005529"/>
<polygon points="297.0,303.0 263.0,320.0 263.0,350.0 297.0,333.0" fill="#00783b"/>
<polygon points="263.0,286.0 297.0,303.0 263.0,320.0 229.0,303.0" fill="#00ad55"/>
<line x1="263.0" y1="286.0" x2="297.0" y2="303.0" stroke="#00d166" stroke-width="1"/>
<line x1="263.0" y1="286.0" x2="229.0" y2="303.0" stroke="#00d166" stroke-width="1"/>
<polygon points="274.0,333.0 308.0,350.0 308.0,380.0 274.0,363.0" fill="#8c6e00"/>
<polygon points="342.0,333.0 308.0,350.0 308.0,380.0 342.0,363.0" fill="#c69c00"/>
<polygon points="308.0,316.0 342.0,333.0 308.0,350.0 274.0,333.0" fill="#ffce1e"/>
<line x1="308.0" y1="316.0" x2="342.0" y2="333.0" stroke="#ffdb59" stroke-width="1"/>
<line x1="308.0" y1="316.0" x2="274.0" y2="333.0" stroke="#ffdb59" stroke-width="1"/>
<polygon points="274.0,303.0 308.0,320.0 308.0,350.0 274.0,333.0" fill="#8c6e00"/>
<polygon points="342.0,303.0 308.0,320.0 308.0,350.0 342.0,333.0" fill="#c69c00"/>
<polygon points="308.0,286.0 342.0,303.0 308.0,320.0 274.0,303.0" fill="#ffce1e"/>
<line x1="308.0" y1="286.0" x2="342.0" y2="303.0" stroke="#ffdb59" stroke-width="1"/>
<line x1="308.0" y1="286.0" x2="274.0" y2="303.0" stroke="#ffdb59" stroke-width="1"/>
<polygon points="274.0,273.0 308.0,290.0 308.0,320.0 274.0,303.0" fill="#8c6e00"/>
<polygon points="342.0,273.0 308.0,290.0 308.0,320.0 342.0,303.0" fill="#c69c00"/>
<polygon points="308.0,256.0 342.0,273.0 308.0,290.0 274.0,273.0" fill="#ffce1e"/>
<line x1="308.0" y1="256.0" x2="342.0" y2="273.0" stroke="#ffdb59" stroke-width="1"/>
<line x1="308.0" y1="256.0" x2="274.0" y2="273.0" stroke="#ffdb59" stroke-width="1"/>
<polygon points="274.0,243.0 308.0,260.0 308.0,290.0 274.0,273.0" fill="#8c6e00"/>
<polygon points="342.0,243.0 308.0,260.0 308.0,290.0 342.0,273.0" fill="#c69c00"/>
<polygon points="308.0,226.0 342.0,243.0 308.0,260.0 274.0,243.0" fill="#ffce1e"/>
<line x1="308.0" y1="226.0" x2="342.0" y2="243.0" stroke="#ffdb59" stroke-width="1"/>
<line x1="308.0" y1="226.0" x2="274.0" y2="243.0" stroke="#ffdb59" stroke-width="1"/>
<polygon points="319.0,333.0 353.0,350.0 353.0,380.0 319.0,363.0" fill="#002d55"/>
<polygon points="387.0,333.0 353.0,350.0 353.0,380.0 387.0,363.0" fill="#003f78"/>
<polygon points="353.0,316.0 387.0,333.0 353.0,350.0 319.0,333.0" fill="#005bad"/>
<line x1="353.0" y1="316.0" x2="387.0" y2="333.0" stroke="#006ed1" stroke-width="1"/>
<line x1="353.0" y1="316.0" x2="319.0" y2="333.0" stroke="#006ed1" stroke-width="1"/>
<polygon points="319.0,303.0 353.0,320.0 353.0,350.0 319.0,333.0" fill="#002d55"/>
<polygon points="387.0,303.0 353.0,320.0 353.0,350.0 387.0,333.0" fill="#003f78"/>
<polygon points="353.0,286.0 387.0,303.0 353.0,320.0 319.0,303.0" fill="#005bad"/>
<line x1="353.0" y1="286.0" x2="387.0" y2="303.0" stroke="#006ed1" stroke-width="1"/>
<line x1="353.0" y1="286.0" x2="319.0" y2="303.0" stroke="#006ed1" stroke-width="1"/>
<polygon points="319.0,273.0 353.0,290.0 353.0,320.0 319.0,303.0" fill="#002d55"/>
<polygon points="387.0,273.0 353.0,290.0 353.0,320.0 387.0,303.0" fill="#003f78"/>
<polygon points="353.0,256.0 387.0,273.0 353.0,290.0 319.0,273.0" fill="#005bad"/>
<line x1="353.0" y1="256.0" x2="387.0" y2="273.0" stroke="#006ed1" stroke-width="1"/>
<line x1="353.0" y1="256.0" x2="319.0" y2="273.0" stroke="#006ed1" stroke-width="1"/>
<polygon points="364.0,333.0 398.0,350.0 398.0,380.0 364.0,363.0" fill="#710914"/>
<polygon points="432.0,333.0 398.0,350.0 398.0,380.0 432.0,363.0" fill="#a00d1d"/>
<polygon points="398.0,316.0 432.0,333.0 398.0,350.0 364.0,333.0" fill="#e6132a"/>
<line x1="398.0" y1="316.0" x2="432.0" y2="333.0" stroke="#ef3d51" stroke-width="1"/>
<line x1="398.0" y1="316.0" x2="364.0" y2="333.0" stroke="#ef3d51" stroke-width="1"/>
<polygon points="364.0,303.0 398.0,320.0 398.0,350.0 364.0,333.0" fill="#710914"/>
<polygon points="432.0,303.0 398.0,320.0 398.0,350.0 432.0,333.0" fill="#a00d1d"/>
<polygon points="398.0,286.0 432.0,303.0 398.0,320.0 364.0,303.0" fill="#e6132a"/>
<line x1="398.0" y1="286.0" x2="432.0" y2="303.0" stroke="#ef3d51" stroke-width="1"/>
<line x1="398.0" y1="286.0" x2="364.0" y2="303.0" stroke="#ef3d51" stroke-width="1"/>
<polygon points="364.0,273.0 398.0,290.0 398.0,320.0 364.0,303.0" fill="#710914"/>
<polygon points="432.0,273.0 398.0,290.0 398.0,320.0 432.0,303.0" fill="#a00d1d"/>
<polygon points="398.0,256.0 432.0,273.0 398.0,290.0 364.0,273.0" fill="#e6132a"/>
<line x1="398.0" y1="256.0" x2="432.0" y2="273.0" stroke="#ef3d51" stroke-width="1"/>
<line x1="398.0" y1="256.0" x2="364.0" y2="273.0" stroke="#ef3d51" stroke-width="1"/>
<polygon points="364.0,243.0 398.0,260.0 398.0,290.0 364.0,273.0" fill="#710914"/>
<polygon points="432.0,243.0 398.0,260.0 398.0,290.0 432.0,273.0" fill="#a00d1d"/>
<polygon points="398.0,226.0 432.0,243.0 398.0,260.0 364.0,243.0" fill="#e6132a"/>
<line x1="398.0" y1="226.0" x2="432.0" y2="243.0" stroke="#ef3d51" stroke-width="1"/>
<line x1="398.0" y1="226.0" x2="364.0" y2="243.0" stroke="#ef3d51" stroke-width="1"/>
<polygon points="364.0,213.0 398.0,230.0 398.0,260.0 364.0,243.0" fill="#710914"/>
<polygon points="432.0,213.0 398.0,230.0 398.0,260.0 432.0,243.0" fill="#a00d1d"/>
<polygon points="398.0,196.0 432.0,213.0 398.0,230.0 364.0,213.0" fill="#e6132a"/>
<line x1="398.0" y1="196.0" x2="432.0" y2="213.0" stroke="#ef3d51" stroke-width="1"/>
<line x1="398.0" y1="196.0" x2="364.0" y2="213.0" stroke="#ef3d51" stroke-width="1"/>
<polygon points="364.0,183.0 398.0,200.0 398.0,230.0 364.0,213.0" fill="#710914"/>
<polygon points="432.0,183.0 398.0,200.0 398.0,230.0 432.0,213.0" fill="#a00d1d"/>
<polygon points="398.0,166.0 432.0,183.0 398.0,200.0 364.0,183.0" fill="#e6132a"/>
<line x1="398.0" y1="166.0" x2="432.0" y2="183.0" stroke="#ef3d51" stroke-width="1"/>
<line x1="398.0" y1="166.0" x2="364.0" y2="183.0" stroke="#ef3d51" stroke-width="1"/>
<polygon points="409.0,333.0 443.0,350.0 443.0,380.0 409.0,363.0" fill="#00606e"/>
<polygon points="477.0,333.0 443.0,350.0 443.0,380.0 477.0,363.0" fill="#00889c"/>
<polygon points="443.0,316.0 477.0,333.0 443.0,350.0 409.0,333.0" fill="#00c3e0"/>
<line x1="443.0" y1="316.0" x2="477.0" y2="333.0" stroke="#0fe0fe" stroke-width="1"/>
<line x1="443.0" y1="316.0" x2="409.0" y2="333.0" stroke="#0fe0fe" stroke-width="1"/>
<polygon points="409.0,303.0 443.0,320.0 443.0,350.0 409.0,333.0" fill="#00606e"/>
<polygon points="477.0,303.0 443.0,320.0 443.0,350.0 477.0,333.0" fill="#00889c"/>
<polygon points="443.0,286.0 477.0,303.0 443.0,320.0 409.0,303.0" fill="#00c3e0"/>
<line x1="443.0" y1="286.0" x2="477.0" y2="303.0" stroke="#0fe0fe" stroke-width="1"/>
<line x1="443.0" y1="286.0" x2="409.0" y2="303.0" stroke="#0fe0fe" stroke-width="1"/>
<polygon points="409.0,273.0 443.0,290.0 443.0,320.0 409.0,303.0" fill="#00606e"/>
<polygon points="477.0,273.0 443.0,290.0 443.0,320.0 477.0,303.0" fill="#00889c"/>
<polygon points="443.0,256.0 477.0,273.0 443.0,290.0 409.0,273.0" fill="#00c3e0"/>
<line x1="443.0" y1="256.0" x2="477.0" y2="273.0" stroke="#0fe0fe" stroke-width="1"/>
<line x1="443.0" y1="256.0" x2="409.0" y2="273.0" stroke="#0fe0fe" stroke-width="1"/>
<polygon points="409.0,243.0 443.0,260.0 443.0,290.0 409.0,273.0" fill="#00606e"/>
<polygon points="477.0,243.0 443.0,260.0 443.0,290.0 477.0,273.0" fill="#00889c"/>
<polygon points="443.0,226.0 477.0,243.0 443.0,260.0 409.0,243.0" fill="#00c3e0"/>
<line x1="443.0" y1="226.0" x2="477.0" y2="243.0" stroke="#0fe0fe" stroke-width="1"/>
<line x1="443.0" y1="226.0" x2="409.0" y2="243.0" stroke="#0fe0fe" stroke-width="1"/>
<polygon points="454.0,333.0 488.0,350.0 488.0,380.0 454.0,363.0" fill="#8c6e00"/>
<polygon points="522.0,333.0 488.0,350.0 488.0,380.0 522.0,363.0" fill="#c69c00"/>
<polygon points="488.0,316.0 522.0,333.0 488.0,350.0 454.0,333.0" fill="#ffce1e"/>
<line x1="488.0" y1="316.0" x2="522.0" y2="333.0" stroke="#ffdb59" stroke-width="1"/>
<line x1="488.0" y1="316.0" x2="454.0" y2="333.0" stroke="#ffdb59" stroke-width="1"/>
<polygon points="454.0,303.0 488.0,320.0 488.0,350.0 454.0,333.0" fill="#8c6e00"/>
<polygon points="522.0,303.0 488.0,320.0 488.0,350.0 522.0,333.0" fill="#c69c00"/>
<polygon points="488.0,286.0 522.0,303.0 488.0,320.0 454.0,303.0" fill="#ffce1e"/>
<line x1="488.0" y1="286.0" x2="522.0" y2="303.0" stroke="#ffdb59" stroke-width="1"/>
<line x1="488.0" y1="286.0" x2="454.0" y2="303.0" stroke="#ffdb59" stroke-width="1"/>
<polygon points="454.0,273.0 488.0,290.0 488.0,320.0 454.0,303.0" fill="#8c6e00"/>
<polygon points="522.0,273.0 488.0,290.0 488.0,320.0 522.0,303.0" fill="#c69c00"/>
<polygon points="488.0,256.0 522.0,273.0 488.0,290.0 454.0,273.0" fill="#ffce1e"/>
<line x1="488.0" y1="256.0" x2="522.0" y2="273.0" stroke="#ffdb59" stroke-width="1"/>
<line x1="488.0" y1="256.0" x2="454.0" y2="273.0" stroke="#ffdb59" stroke-width="1"/>
<polygon points="454.0,243.0 488.0,260.0 488.0,290.0 454.0,273.0" fill="#8c6e00"/>
<polygon points="522.0,243.0 488.0,260.0 488.0,290.0 522.0,273.0" fill="#c69c00"/>
<polygon points="488.0,226.0 522.0,243.0 488.0,260.0 454.0,243.0" fill="#ffce1e"/>
<line x1="488.0" y1="226.0" x2="522.0" y2="243.0" stroke="#ffdb59" stroke-width="1"/>
<line x1="488.0" y1="226.0" x2="454.0" y2="243.0" stroke="#ffdb59" stroke-width="1"/>
<polygon points="454.0,213.0 488.0,230.0 488.0,260.0 454.0,243.0" fill="#8c6e00"/>
<polygon points="522.0,213.0 488.0,230.0 488.0,260.0 522.0,243.0" fill="#c69c00"/>
<polygon points="488.0,196.0 522.0,213.0 488.0,230.0 454.0,213.0" fill="#ffce1e"/>
<line x1="488.0" y1="196.0" x2="522.0" y2="213.0" stroke="#ffdb59" stroke-width="1"/>
<line x1="488.0" y1="196.0" x2="454.0" y2="213.0" stroke="#ffdb59" stroke-width="1"/>
<polygon points="454.0,183.0 488.0,200.0 488.0,230.0 454.0,213.0" fill="#8c6e00"/>
<polygon points="522.0,183.0 488.0,200.0 488.0,230.0 522.0,213.0" fill="#c69c00"/>
<polygon points="488.0,166.0 522.0,183.0 488.0,200.0 454.0,183.0" fill="#ffce1e"/>
<line x1="488.0" y1="166.0" x2="522.0" y2="183.0" stroke="#ffdb59" stroke-width="1"/>
<line x1="488.0" y1="166.0" x2="454.0" y2="183.0" stroke="#ffdb59" stroke-width="1"/>
<polygon points="454.0,153.0 488.0,170.0 488.0,200.0 454.0,183.0" fill="#8c6e00"/>
<polygon points="522.0,153.0 488.0,170.0 488.0,200.0 522.0,183.0" fill="#c69c00"/>
<polygon points="488.0,136.0 522.0,153.0 488.0,170.0 454.0,153.0" fill="#ffce1e"/>
<line x1="488.0" y1="136.0" x2="522.0" y2="153.0" stroke="#ffdb59" stroke-width="1"/>
<line x1="488.0" y1="136.0" x2="454.0" y2="153.0" stroke="#ffdb59" stroke-width="1"/>
<polygon points="499.0,333.0 533.0,350.0 533.0,380.0 499.0,363.0" fill="#005529"/>
<polygon points="567.0,333.0 533.0,350.0 533.0,380.0 567.0,363.0" fill="#00783b"/>
<polygon points="533.0,316.0 567.0,333.0 533.0,350.0 499.0,333.0" fill="#00ad55"/>
<line x1="533.0" y1="316.0" x2="567.0" y2="333.0" stroke="#00d166" stroke-width="1"/>
<line x1="533.0" y1="316.0" x2="499.0" y2="333.0" stroke="#00d166" stroke-width="1"/>
<polygon points="499.0,303.0 533.0,320.0 533.0,350.0 499.0,333.0" fill="#005529"/>
<polygon points="567.0,303.0 533.0,320.0 533.0,350.0 567.0,333.0" fill="#00783b"/>
<polygon points="533.0,286.0 567.0,303.0 533.0,320.0 499.0,303.0" fill="#00ad55"/>
<line x1="533.0" y1="286.0" x2="567.0" y2="303.0" stroke="#00d166" stroke-width="1"/>
<line x1="533.0" y1="286.0" x2="499.0" y2="303.0" stroke="#00d166" stroke-width="1"/>
<polygon points="499.0,273.0 533.0,290.0 533.0,320.0 499.0,303.0" fill="#005529"/>
<polygon points="567.0,273.0 533.0,290.0 533.0,320.0 567.0,303.0" fill="#00783b"/>
<polygon points="533.0,256.0 567.0,273.0 533.0,290.0 499.0,273.0" fill="#00ad55"/>
<line x1="533.0" y1="256.0" x2="567.0" y2="273.0" stroke="#00d166" stroke-width="1"/>
<line x1="533.0" y1="256.0" x2="499.0" y2="273.0" stroke="#00d166" stroke-width="1"/>
<polygon points="499.0,243.0 533.0,260.0 533.0,290.0 499.0,273.0" fill="#005529"/>
<polygon points="567.0,243.0 533.0,260.0 533.0,290.0 567.0,273.0" fill="#00783b"/>
<polygon points="533.0,226.0 567.0,243.0 533.0,260.0 499.0,243.0" fill="#00ad55"/>
<line x1="533.0" y1="226.0" x2="567.0" y2="243.0" stroke="#00d166" stroke-width="1"/>
<line x1="533.0" y1="226.0" x2="499.0" y2="243.0" stroke="#00d166" stroke-width="1"/>
<polygon points="499.0,213.0 533.0,230.0 533.0,260.0 499.0,243.0" fill="#005529"/>
<polygon points="567.0,213.0 533.0,230.0 533.0,260.0 567.0,243.0" fill="#00783b"/>
<polygon points="533.0,196.0 567.0,213.0 533.0,230.0 499.0,213.0" fill="#00ad55"/>
<line x1="533.0" y1="196.0" x2="567.0" y2="213.0" stroke="#00d166" stroke-width="1"/>
<line x1="533.0" y1="196.0" x2="499.0" y2="213.0" stroke="#00d166" stroke-width="1"/>
<polygon points="544.0,333.0 578.0,350.0 578.0,380.0 544.0,363.0" fill="#002d55"/>
<polygon points="612.0,333.0 578.0,350.0 578.0,380.0 612.0,363.0" fill="#003f78"/>
<polygon points="578.0,316.0 612.0,333.0 578.0,350.0 544.0,333.0" fill="#005bad"/>
<line x1="578.0" y1="316.0" x2="612.0" y2="333.0" stroke="#006ed1" stroke-width="1"/>
<line x1="578.0" y1="316.0" x2="544.0" y2="333.0" stroke="#006ed1" stroke-width="1"/>
<polygon points="544.0,303.0 578.0,320.0 578.0,350.0 544.0,333.0" fill="#002d55"/>
<polygon points="612.0,303.0 578.0,320.0 578.0,350.0 612.0,333.0" fill="#003f78"/>
<polygon points="578.0,286.0 612.0,303.0 578.0,320.0 544.0,303.0" fill="#005bad"/>
<line x1="578.0" y1="286.0" x2="612.0" y2="303.0" stroke="#006ed1" stroke-width="1"/>
<line x1="578.0" y1="286.0" x2="544.0" y2="303.0" stroke="#006ed1" stroke-width="1"/>
<polygon points="544.0,273.0 578.0,290.0 578.0,320.0 544.0,303.0" fill="#002d55"/>
<polygon points="612.0,273.0 578.0,290.0 578.0,320.0 612.0,303.0" fill="#003f78"/>
<polygon points="578.0,256.0 612.0,273.0 578.0,290.0 544.0,273.0" fill="#005bad"/>
<line x1="578.0" y1="256.0" x2="612.0" y2="273.0" stroke="#006ed1" stroke-width="1"/>
<line x1="578.0" y1="256.0" x2="544.0" y2="273.0" stroke="#006ed1" stroke-width="1"/>
<polygon points="544.0,243.0 578.0,260.0 578.0,290.0 544.0,273.0" fill="#002d55"/>
<polygon points="612.0,243.0 578.0,260.0 578.0,290.0 612.0,273.0" fill="#003f78"/>
<polygon points="578.0,226.0 612.0,243.0 578.0,260.0 544.0,243.0" fill="#005bad"/>
<line x1="578.0" y1="226.0" x2="612.0" y2="243.0" stroke="#006ed1" stroke-width="1"/>
<line x1="578.0" y1="226.0" x2="544.0" y2="243.0" stroke="#006ed1" stroke-width="1"/>
<polygon points="544.0,213.0 578.0,230.0 578.0,260.0 544.0,243.0" fill="#002d55"/>
<polygon points="612.0,213.0 578.0,230.0 578.0,260.0 612.0,243.0" fill="#003f78"/>
<polygon points="578.0,196.0 612.0,213.0 578.0,230.0 544.0,213.0" fill="#005bad"/>
<line x1="578.0" y1="196.0" x2="612.0" y2="213.0" stroke="#006ed1" stroke-width="1"/>
<line x1="578.0" y1="196.0" x2="544.0" y2="213.0" stroke="#006ed1" stroke-width="1"/>
<polygon points="544.0,183.0 578.0,200.0 578.0,230.0 544.0,213.0" fill="#002d55"/>
<polygon points="612.0,183.0 578.0,200.0 578.0,230.0 612.0,213.0" fill="#003f78"/>
<polygon points="578.0,166.0 612.0,183.0 578.0,200.0 544.0,183.0" fill="#005bad"/>
<line x1="578.0" y1="166.0" x2="612.0" y2="183.0" stroke="#006ed1" stroke-width="1"/>
<line x1="578.0" y1="166.0" x2="544.0" y2="183.0" stroke="#006ed1" stroke-width="1"/>
<polygon points="544.0,153.0 578.0,170.0 578.0,200.0 544.0,183.0" fill="#002d55"/>
<polygon points="612.0,153.0 578.0,170.0 578.0,200.0 612.0,183.0" fill="#003f78"/>
<polygon points="578.0,136.0 612.0,153.0 578.0,170.0 544.0,153.0" fill="#005bad"/>
<line x1="578.0" y1="136.0" x2="612.0" y2="153.0" stroke="#006ed1" stroke-width="1"/>
<line x1="578.0" y1="136.0" x2="544.0" y2="153.0" stroke="#006ed1" stroke-width="1"/>
<polygon points="544.0,123.0 578.0,140.0 578.0,170.0 544.0,153.0" fill="#002d55"/>
<polygon points="612.0,123.0 578.0,140.0 578.0,170.0 612.0,153.0" fill="#003f78"/>
<polygon points="578.0,106.0 612.0,123.0 578.0,140.0 544.0,123.0" fill="#005bad"/>
<line x1="578.0" y1="106.0" x2="612.0" y2="123.0" stroke="#006ed1" stroke-width="1"/>
<line x1="578.0" y1="106.0" x2="544.0" y2="123.0" stroke="#006ed1" stroke-width="1"/>
<polygon points="589.0,333.0 623.0,350.0 623.0,380.0 589.0,363.0" fill="#005529"/>
<polygon points="657.0,333.0 623.0,350.0 623.0,380.0 657.0,363.0" fill="#00783b"/>
<polygon points="623.0,316.0 657.0,333.0 623.0,350.0 589.0,333.0" fill="#00ad55"/>
<line x1="623.0" y1="316.0" x2="657.0" y2="333.0" stroke="#00d166" stroke-width="1"/>
<line x1="623.0" y1="316.0" x2="589.0" y2="333.0" stroke="#00d166" stroke-width="1"/>
<polygon points="589.0,303.0 623.0,320.0 623.0,350.0 589.0,333.0" fill="#005529"/>
<polygon points="657.0,303.0 623.0,320.0 623.0,350.0 657.0,333.0" fill="#00783b"/>
<polygon points="623.0,286.0 657.0,303.0 623.0,320.0 589.0,303.0" fill="#00ad55"/>
<line x1="623.0" y1="286.0" x2="657.0" y2="303.0" stroke="#00d166" stroke-width="1"/>
<line x1="623.0" y1="286.0" x2="589.0" y2="303.0" stroke="#00d166" stroke-width="1"/>
<polygon points="589.0,273.0 623.0,290.0 623.0,320.0 589.0,303.0" fill="#005529"/>
<polygon points="657.0,273.0 623.0,290.0 623.0,320.0 657.0,303.0" fill="#00783b"/>
<polygon points="623.0,256.0 657.0,273.0 623.0,290.0 589.0,273.0" fill="#00ad55"/>
<line x1="623.0" y1="256.0" x2="657.0" y2="273.0" stroke="#00d166" stroke-width="1"/>
<line x1="623.0" y1="256.0" x2="589.0" y2="273.0" stroke="#00d166" stroke-width="1"/>
<polygon points="589.0,243.0 623.0,260.0 623.0,290.0 589.0,273.0" fill="#005529"/>
<polygon points="657.0,243.0 623.0,260.0 623.0,290.0 657.0,273.0" fill="#00783b"/>
<polygon points="623.0,226.0 657.0,243.0 623.0,260.0 589.0,243.0" fill="#00ad55"/>
<line x1="623.0" y1="226.0" x2="657.0" y2="243.0" stroke="#00d166" stroke-width="1"/>
<line x1="623.0" y1="226.0" x2="589.0" y2="243.0" stroke="#00d166" stroke-width="1"/>
<polygon points="589.0,213.0 623.0,230.0 623.0,260.0 589.0,243.0" fill="#005529"/>
<polygon points="657.0,213.0 623.0,230.0 623.0,260.0 657.0,243.0" fill="#00783b"/>
<polygon points="623.0,196.0 657.0,213.0 623.0,230.0 589.0,213.0" fill="#00ad55"/>
<line x1="623.0" y1="196.0" x2="657.0" y2="213.0" stroke="#00d166" stroke-width="1"/>
<line x1="623.0" y1="196.0" x2="589.0" y2="213.0" stroke="#00d166" stroke-width="1"/>
<polygon points="589.0,183.0 623.0,200.0 623.0,230.0 589.0,213.0" fill="#005529"/>
<polygon points="657.0,183.0 623.0,200.0 623.0,230.0 657.0,213.0" fill="#00783b"/>
<polygon points="623.0,166.0 657.0,183.0 623.0,200.0 589.0,183.0" fill="#00ad55"/>
<line x1="623.0" y1="166.0" x2="657.0" y2="183.0" stroke="#00d166" stroke-width="1"/>
<line x1="623.0" y1="166.0" x2="589.0" y2="183.0" stroke="#00d166" stroke-width="1"/>
<polygon points="634.0,333.0 668.0,350.0 668.0,380.0 634.0,363.0" fill="#8c6e00"/>
<polygon points="702.0,333.0 668.0,350.0 668.0,380.0 702.0,363.0" fill="#c69c00"/>
<polygon points="668.0,316.0 702.0,333.0 668.0,350.0 634.0,333.0" fill="#ffce1e"/>
<line x1="668.0" y1="316.0" x2="702.0" y2="333.0" stroke="#ffdb59" stroke-width="1"/>
<line x1="668.0" y1="316.0" x2="634.0" y2="333.0" stroke="#ffdb59" stroke-width="1"/>
<polygon points="634.0,303.0 668.0,320.0 668.0,350.0 634.0,333.0" fill="#8c6e00"/>
<polygon points="702.0,303.0 668.0,320.0 668.0,350.0 702.0,333.0" fill="#c69c00"/>
<polygon points="668.0,286.0 702.0,303.0 668.0,320.0 634.0,303.0" fill="#ffce1e"/>
<line x1="668.0" y1="286.0" x2="702.0" y2="303.0" stroke="#ffdb59" stroke-width="1"/>
<line x1="668.0" y1="286.0" x2="634.0" y2="303.0" stroke="#ffdb59" stroke-width="1"/>
<polygon points="634.0,273.0 668.0,290.0 668.0,320.0 634.0,303.0" fill="#8c6e00"/>
<polygon points="702.0,273.0 668.0,290.0 668.0,320.0 702.0,303.0" fill="#c69c00"/>
<polygon points="668.0,256.0 702.0,273.0 668.0,290.0 634.0,273.0" fill="#ffce1e"/>
<line x1="668.0" y1="256.0" x2="702.0" y2="273.0" stroke="#ffdb59" stroke-width="1"/>
<line x1="668.0" y1="256.0" x2="634.0" y2="273.0" stroke="#ffdb59" stroke-width="1"/>
<polygon points="634.0,243.0 668.0,260.0 668.0,290.0 634.0,273.0" fill="#8c6e00"/>
<polygon points="702.0,243.0 668.0,260.0 668.0,290.0 702.0,273.0" fill="#c69c00"/>
<polygon points="668.0,226.0 702.0,243.0 668.0,260.0 634.0,243.0" fill="#ffce1e"/>
<line x1="668.0" y1="226.0" x2="702.0" y2="243.0" stroke="#ffdb59" stroke-width="1"/>
<line x1="668.0" y1="226.0" x2="634.0" y2="243.0" stroke="#ffdb59" stroke-width="1"/>
<polygon points="679.0,333.0 713.0,350.0 713.0,380.0 679.0,363.0" fill="#002d55"/>
<polygon points="747.0,333.0 713.0,350.0 713.0,380.0 747.0,363.0" fill="#003f78"/>
<polygon points="713.0,316.0 747.0,333.0 713.0,350.0 679.0,333.0" fill="#005bad"/>
<line x1="713.0" y1="316.0" x2="747.0" y2="333.0" stroke="#006ed1" stroke-width="1"/>
<line x1="713.0" y1="316.0" x2="679.0" y2="333.0" stroke="#006ed1" stroke-width="1"/>
<polygon points="679.0,303.0 713.0,320.0 713.0,350.0 679.0,333.0" fill="#002d55"/>
<polygon points="747.0,303.0 713.0,320.0 713.0,350.0 747.0,333.0" fill="#003f78"/>
<polygon points="713.0,286.0 747.0,303.0 713.0,320.0 679.0,303.0" fill="#005bad"/>
<line x1="713.0" y1="286.0" x2="747.0" y2="303.0" stroke="#006ed1" stroke-width="1"/>
<line x1="713.0" y1="286.0" x2="679.0" y2="303.0" stroke="#006ed1" stroke-width="1"/>
<polygon points="679.0,273.0 713.0,290.0 713.0,320.0 679.0,303.0" fill="#002d55"/>
<polygon points="747.0,273.0 713.0,290.0 713.0,320.0 747.0,303.0" fill="#003f78"/>
<polygon points="713.0,256.0 747.0,273.0 713.0,290.0 679.0,273.0" fill="#005bad"/>
<line x1="713.0" y1="256.0" x2="747.0" y2="273.0" stroke="#006ed1" stroke-width="1"/>
<line x1="713.0" y1="256.0" x2="679.0" y2="273.0" stroke="#006ed1" stroke-width="1"/>
<polygon points="679.0,243.0 713.0,260.0 713.0,290.0 679.0,273.0" fill="#002d55"/>
<polygon points="747.0,243.0 713.0,260.0 713.0,290.0 747.0,273.0" fill="#003f78"/>
<polygon points="713.0,226.0 747.0,243.0 713.0,260.0 679.0,243.0" fill="#005bad"/>
<line x1="713.0" y1="226.0" x2="747.0" y2="243.0" stroke="#006ed1" stroke-width="1"/>
<line x1="713.0" y1="226.0" x2="679.0" y2="243.0" stroke="#006ed1" stroke-width="1"/>
<polygon points="679.0,213.0 713.0,230.0 713.0,260.0 679.0,243.0" fill="#002d55"/>
<polygon points="747.0,213.0 713.0,230.0 713.0,260.0 747.0,243.0" fill="#003f78"/>
<polygon points="713.0,196.0 747.0,213.0 713.0,230.0 679.0,213.0" fill="#005bad"/>
<line x1="713.0" y1="196.0" x2="747.0" y2="213.0" stroke="#006ed1" stroke-width="1"/>
<line x1="713.0" y1="196.0" x2="679.0" y2="213.0" stroke="#006ed1" stroke-width="1"/>
<polygon points="679.0,183.0 713.0,200.0 713.0,230.0 679.0,213.0" fill="#002d55"/>
<polygon points="747.0,183.0 713.0,200.0 713.0,230.0 747.0,213.0" fill="#003f78"/>
<polygon points="713.0,166.0 747.0,183.0 713.0,200.0 679.0,183.0" fill="#005bad"/>
<line x1="713.0" y1="166.0" x2="747.0" y2="183.0" stroke="#006ed1" stroke-width="1"/>
<line x1="713.0" y1="166.0" x2="679.0" y2="183.0" stroke="#006ed1" stroke-width="1"/>
<polygon points="679.0,153.0 713.0,170.0 713.0,200.0 679.0,183.0" fill="#002d55"/>
<polygon points="747.0,153.0 713.0,170.0 713.0,200.0 747.0,183.0" fill="#003f78"/>
<polygon points="713.0,136.0 747.0,153.0 713.0,170.0 679.0,153.0" fill="#005bad"/>
<line x1="713.0" y1="136.0" x2="747.0" y2="153.0" stroke="#006ed1" stroke-width="1"/>
<line x1="713.0" y1="136.0" x2="679.0" y2="153.0" stroke="#006ed1" stroke-width="1"/>
<polygon points="724.0,333.0 758.0,350.0 758.0,380.0 724.0,363.0" fill="#710914"/>
<polygon points="792.0,333.0 758.0,350.0 758.0,380.0 792.0,363.0" fill="#a00d1d"/>
<polygon points="758.0,316.0 792.0,333.0 758.0,350.0 724.0,333.0" fill="#e6132a"/>
<line x1="758.0" y1="316.0" x2="792.0" y2="333.0" stroke="#ef3d51" stroke-width="1"/>
<line x1="758.0" y1="316.0" x2="724.0" y2="333.0" stroke="#ef3d51" stroke-width="1"/>
<polygon points="724.0,303.0 758.0,320.0 758.0,350.0 724.0,333.0" fill="#710914"/>
<polygon points="792.0,303.0 758.0,320.0 758.0,350.0 792.0,333.0" fill="#a00d1d"/>
<polygon points="758.0,286.0 792.0,303.0 758.0,320.0 724.0,303.0" fill="#e6132a"/>
<line x1="758.0" y1="286.0" x2="792.0" y2="303.0" stroke="#ef3d51" stroke-width="1"/>
<line x1="758.0" y1="286.0" x2="724.0" y2="303.0" stroke="#ef3d51" stroke-width="1"/>
<polygon points="724.0,273.0 758.0,290.0 758.0,320.0 724.0,303.0" fill="#710914"/>
<polygon points="792.0,273.0 758.0,290.0 758.0,320.0 792.0,303.0" fill="#a00d1d"/>
<polygon points="758.0,256.0 792.0,273.0 758.0,290.0 724.0,273.0" fill="#e6132a"/>
<line x1="758.0" y1="256.0" x2="792.0" y2="273.0" stroke="#ef3d51" stroke-width="1"/>
<line x1="758.0" y1="256.0" x2="724.0" y2="273.0" stroke="#ef3d51" stroke-width="1"/>
<polygon points="724.0,243.0 758.0,260.0 758.0,290.0 724.0,273.0" fill="#710914"/>
<polygon points="792.0,243.0 758.0,260.0 758.0,290.0 792.0,273.0" fill="#a00d1d"/>
<polygon points="758.0,226.0 792.0,243.0 758.0,260.0 724.0,243.0" fill="#e6132a"/>
<line x1="758.0" y1="226.0" x2="792.0" y2="243.0" stroke="#ef3d51" stroke-width="1"/>
<line x1="758.0" y1="226.0" x2="724.0" y2="243.0" stroke="#ef3d51" stroke-width="1"/>
<polygon points="724.0,213.0 758.0,230.0 758.0,260.0 724.0,243.0" fill="#710914"/>
<polygon points="792.0,213.0 758.0,230.0 758.0,260.0 792.0,243.0" fill="#a00d1d"/>
<polygon points="758.0,196.0 792.0,213.0 758.0,230.0 724.0,213.0" fill="#e6132a"/>
<line x1="758.0" y1="196.0" x2="792.0" y2="213.0" stroke="#ef3d51" stroke-width="1"/>
<line x1="758.0" y1="196.0" x2="724.0" y2="213.0" stroke="#ef3d51" stroke-width="1"/>
<polygon points="769.0,333.0 803.0,350.0 803.0,380.0 769.0,363.0" fill="#00606e"/>
<polygon points="837.0,333.0 803.0,350.0 803.0,380.0 837.0,363.0" fill="#00889c"/>
<polygon points="803.0,316.0 837.0,333.0 803.0,350.0 769.0,333.0" fill="#00c3e0"/>
<line x1="803.0" y1="316.0" x2="837.0" y2="333.0" stroke="#0fe0fe" stroke-width="1"/>
<line x1="803.0" y1="316.0" x2="769.0" y2="333.0" stroke="#0fe0fe" stroke-width="1"/>
<polygon points="769.0,303.0 803.0,320.0 803.0,350.0 769.0,333.0" fill="#00606e"/>
<polygon points="837.0,303.0 803.0,320.0 803.0,350.0 837.0,333.0" fill="#00889c"/>
<polygon points="803.0,286.0 837.0,303.0 803.0,320.0 769.0,303.0" fill="#00c3e0"/>
<line x1="803.0" y1="286.0" x2="837.0" y2="303.0" stroke="#0fe0fe" stroke-width="1"/>
<line x1="803.0" y1="286.0" x2="769.0" y2="303.0" stroke="#0fe0fe" stroke-width="1"/>
<polygon points="769.0,273.0 803.0,290.0 803.0,320.0 769.0,303.0" fill="#00606e"/>
<polygon points="837.0,273.0 803.0,290.0 803.0,320.0 837.0,303.0" fill="#00889c"/>
<polygon points="803.0,256.0 837.0,273.0 803.0,290.0 769.0,273.0" fill="#00c3e0"/>
<line x1="803.0" y1="256.0" x2="837.0" y2="273.0" stroke="#0fe0fe" stroke-width="1"/>
<line x1="803.0" y1="256.0" x2="769.0" y2="273.0" stroke="#0fe0fe" stroke-width="1"/>
<polygon points="814.0,333.0 848.0,350.0 848.0,380.0 814.0,363.0" fill="#8c6e00"/>
<polygon points="882.0,333.0 848.0,350.0 848.0,380.0 882.0,363.0" fill="#c69c00"/>
<polygon points="848.0,316.0 882.0,333.0 848.0,350.0 814.0,333.0" fill="#ffce1e"/>
<line x1="848.0" y1="316.0" x2="882.0" y2="333.0" stroke="#ffdb59" stroke-width="1"/>
<line x1="848.0" y1="316.0" x2="814.0" y2="333.0" stroke="#ffdb59" stroke-width="1"/>
<polygon points="814.0,303.0 848.0,320.0 848.0,350.0 814.0,333.0" fill="#8c6e00"/>
<polygon points="882.0,303.0 848.0,320.0 848.0,350.0 882.0,333.0" fill="#c69c00"/>
<polygon points="848.0,286.0 882.0,303.0 848.0,320.0 814.0,303.0" fill="#ffce1e"/>
<line x1="848.0" y1="286.0" x2="882.0" y2="303.0" stroke="#ffdb59" stroke-width="1"/>
<line x1="848.0" y1="286.0" x2="814.0" y2="303.0" stroke="#ffdb59" stroke-width="1"/>
<polygon points="814.0,273.0 848.0,290.0 848.0,320.0 814.0,303.0" fill="#8c6e00"/>
<polygon points="882.0,273.0 848.0,290.0 848.0,320.0 882.0,303.0" fill="#c69c00"/>
<polygon points="848.0,256.0 882.0,273.0 848.0,290.0 814.0,273.0" fill="#ffce1e"/>
<line x1="848.0" y1="256.0" x2="882.0" y2="273.0" stroke="#ffdb59" stroke-width="1"/>
<line x1="848.0" y1="256.0" x2="814.0" y2="273.0" stroke="#ffdb59" stroke-width="1"/>
<polygon points="814.0,243.0 848.0,260.0 848.0,290.0 814.0,273.0" fill="#8c6e00"/>
<polygon points="882.0,243.0 848.0,260.0 848.0,290.0 882.0,273.0" fill="#c69c00"/>
<polygon points="848.0,226.0 882.0,243.0 848.0,260.0 814.0,243.0" fill="#ffce1e"/>
<line x1="848.0" y1="226.0" x2="882.0" y2="243.0" stroke="#ffdb59" stroke-width="1"/>
<line x1="848.0" y1="226.0" x2="814.0" y2="243.0" stroke="#ffdb59" stroke-width="1"/>
<polygon points="814.0,213.0 848.0,230.0 848.0,260.0 814.0,243.0" fill="#8c6e00"/>
<polygon points="882.0,213.0 848.0,230.0 848.0,260.0 882.0,243.0" fill="#c69c00"/>
<polygon points="848.0,196.0 882.0,213.0 848.0,230.0 814.0,213.0" fill="#ffce1e"/>
<line x1="848.0" y1="196.0" x2="882.0" y2="213.0" stroke="#ffdb59" stroke-width="1"/>
<line x1="848.0" y1="196.0" x2="814.0" y2="213.0" stroke="#ffdb59" stroke-width="1"/>
<polygon points="814.0,183.0 848.0,200.0 848.0,230.0 814.0,213.0" fill="#8c6e00"/>
<polygon points="882.0,183.0 848.0,200.0 848.0,230.0 882.0,213.0" fill="#c69c00"/>
<polygon points="848.0,166.0 882.0,183.0 848.0,200.0 814.0,183.0" fill="#ffce1e"/>
<line x1="848.0" y1="166.0" x2="882.0" y2="183.0" stroke="#ffdb59" stroke-width="1"/>
<line x1="848.0" y1="166.0" x2="814.0" y2="183.0" stroke="#ffdb59" stroke-width="1"/>
<polygon points="859.0,333.0 893.0,350.0 893.0,380.0 859.0,363.0" fill="#005529"/>
<polygon points="927.0,333.0 893.0,350.0 893.0,380.0 927.0,363.0" fill="#00783b"/>
<polygon points="893.0,316.0 927.0,333.0 893.0,350.0 859.0,333.0" fill="#00ad55"/>
<line x1="893.0" y1="316.0" x2="927.0" y2="333.0" stroke="#00d166" stroke-width="1"/>
<line x1="893.0" y1="316.0" x2="859.0" y2="333.0" stroke="#00d166" stroke-width="1"/>
<polygon points="859.0,303.0 893.0,320.0 893.0,350.0 859.0,333.0" fill="#005529"/>
<polygon points="927.0,303.0 893.0,320.0 893.0,350.0 927.0,333.0" fill="#00783b"/>
<polygon points="893.0,286.0 927.0,303.0 893.0,320.0 859.0,303.0" fill="#00ad55"/>
<line x1="893.0" y1="286.0" x2="927.0" y2="303.0" stroke="#00d166" stroke-width="1"/>
<line x1="893.0" y1="286.0" x2="859.0" y2="303.0" stroke="#00d166" stroke-width="1"/>
<polygon points="859.0,273.0 893.0,290.0 893.0,320.0 859.0,303.0" fill="#005529"/>
<polygon points="927.0,273.0 893.0,290.0 893.0,320.0 927.0,303.0" fill="#00783b"/>
<polygon points="893.0,256.0 927.0,273.0 893.0,290.0 859.0,273.0" fill="#00ad55"/>
<line x1="893.0" y1="256.0" x2="927.0" y2="273.0" stroke="#00d166" stroke-width="1"/>
<line x1="893.0" y1="256.0" x2="859.0" y2="273.0" stroke="#00d166" stroke-width="1"/>
<polygon points="859.0,243.0 893.0,260.0 893.0,290.0 859.0,273.0" fill="#005529"/>
<polygon points="927.0,243.0 893.0,260.0 893.0,290.0 927.0,273.0" fill="#00783b"/>
<polygon points="893.0,226.0 927.0,243.0 893.0,260.0 859.0,243.0" fill="#00ad55"/>
<line x1="893.0" y1="226.0" x2="927.0" y2="243.0" stroke="#00d166" stroke-width="1"/>
<line x1="893.0" y1="226.0" x2="859.0" y2="243.0" stroke="#00d166" stroke-width="1"/>
<polygon points="904.0,333.0 938.0,350.0 938.0,380.0 904.0,363.0" fill="#002d55"/>
<polygon points="972.0,333.0 938.0,350.0 938.0,380.0 972.0,363.0" fill="#003f78"/>
<polygon points="938.0,316.0 972.0,333.0 938.0,350.0 904.0,333.0" fill="#005bad"/>
<line x1="938.0" y1="316.0" x2="972.0" y2="333.0" stroke="#006ed1" stroke-width="1"/>
<line x1="938.0" y1="316.0" x2="904.0" y2="333.0" stroke="#006ed1" stroke-width="1"/>
<polygon points="904.0,303.0 938.0,320.0 938.0,350.0 904.0,333.0" fill="#002d55"/>
<polygon points="972.0,303.0 938.0,320.0 938.0,350.0 972.0,333.0" fill="#003f78"/>
<polygon points="938.0,286.0 972.0,303.0 938.0,320.0 904.0,303.0" fill="#005bad"/>
<line x1="938.0" y1="286.0" x2="972.0" y2="303.0" stroke="#006ed1" stroke-width="1"/>
<line x1="938.0" y1="286.0" x2="904.0" y2="303.0" stroke="#006ed1" stroke-width="1"/>
<polygon points="38.0,161.0 72.0,178.0 72.0,199.0 38.0,182.0" fill="#00606e"/>
<polygon points="106.0,161.0 72.0,178.0 72.0,199.0 106.0,182.0" fill="#00889c"/>
<polygon points="72.0,144.0 106.0,161.0 72.0,178.0 38.0,161.0" fill="#00c3e0"/>
<line x1="72.0" y1="144.0" x2="106.0" y2="161.0" stroke="#0fe0fe" stroke-width="1"/>
<line x1="72.0" y1="144.0" x2="38.0" y2="161.0" stroke="#0fe0fe" stroke-width="1"/>
<polygon points="98.0,266.0 132.0,283.0 132.0,304.0 98.0,287.0" fill="#8c6e00"/>
<polygon points="166.0,266.0 132.0,283.0 132.0,304.0 166.0,287.0" fill="#c69c00"/>
<polygon points="132.0,249.0 166.0,266.0 132.0,283.0 98.0,266.0" fill="#ffce1e"/>
<line x1="132.0" y1="249.0" x2="166.0" y2="266.0" stroke="#ffdb59" stroke-width="1"/>
<line x1="132.0" y1="249.0" x2="98.0" y2="266.0" stroke="#ffdb59" stroke-width="1"/>
<polygon points="1082.0,170.0 1116.0,187.0 1116.0,208.0 1082.0,191.0" fill="#005529"/>
<polygon points="1150.0,170.0 1116.0,187.0 1116.0,208.0 1150.0,191.0" fill="#00783b"/>
<polygon points="1116.0,153.0 1150.0,170.0 1116.0,187.0 1082.0,170.0" fill="#00ad55"/>
<line x1="1116.0" y1="153.0" x2="1150.0" y2="170.0" stroke="#00d166" stroke-width="1"/>
<line x1="1116.0" y1="153.0" x2="1082.0" y2="170.0" stroke="#00d166" stroke-width="1"/>
<polygon points="1046.0,281.0 1080.0,298.0 1080.0,319.0 1046.0,302.0" fill="#710914"/>
<polygon points="1114.0,281.0 1080.0,298.0 1080.0,319.0 1114.0,302.0" fill="#a00d1d"/>
<polygon points="1080.0,264.0 1114.0,281.0 1080.0,298.0 1046.0,281.0" fill="#e6132a"/>
<line x1="1080.0" y1="264.0" x2="1114.0" y2="281.0" stroke="#ef3d51" stroke-width="1"/>
<line x1="1080.0" y1="264.0" x2="1046.0" y2="281.0" stroke="#ef3d51" stroke-width="1"/>
  <text x="600" y="115" text-anchor="middle" font-family="Georgia, 'DejaVu Serif', serif" font-weight="bold" font-size="80" fill="url(#title)">THE GENIUS PROJECT</text>
  <text x="600" y="163" text-anchor="middle" font-family="'DejaVu Sans', Arial, sans-serif" font-size="23" letter-spacing="2" fill="#96d2eb">YEAR 3  ·  CARIBBEAN AI  ·  DEEP LEARNING &amp; COMPUTER VISION</text>
</svg>
